{"accessors":[{"bufferView":0,"componentType":5126,"count":18,"max":[0.0339062474668026,0.0450000017881393,0.025000000372529],"min":[-0.0323437489569187,-0.0342187434434891,-0.025000000372529],"normalized":false,"type":"VEC3"},{"bufferView":1,"componentType":5126,"count":18,"max":[1.0,1.0,-0.0000152590218931437,1.0],"min":[-1.0,-0.516878306865692,-0.0000627143526799046,1.0],"normalized":false,"type":"VEC4"},{"bufferView":2,"componentType":5126,"count":18,"max":[0.516853749752045,0.86052131652832,1.0],"min":[-1.0,-0.85607373714447,-1.0],"normalized":false,"type":"VEC3"},{"bufferView":3,"componentType":5126,"count":18,"max":[1.0,0.899999976158142],"min":[0.0,0.0],"normalized":false,"type":"VEC2"},{"bufferView":4,"componentType":5123,"count":24,"max":[17.0],"min":[0.0],"normalized":false,"type":"SCALAR"}],"asset":{"generator":"Godot Engine v4.5.1.stable.official@f62fdbde15035c5576dad93e586201f4d41ef0cb","version":"2.0"},"bufferViews":[{"buffer":0,"byteLength":216,"byteStride":12,"target":34962},{"buffer":0,"byteLength":288,"byteOffset":216,"byteStride":16,"target":34962},{"buffer":0,"byteLength":216,"byteOffset":504,"byteStride":12,"target":34962},{"buffer":0,"byteLength":144,"byteOffset":720,"byteStride":8,"target":34962},{"buffer":0,"byteLength":48,"byteOffset":864,"target":34963}],"buffers":[{"byteLength":912,"uri":"play_icon0.bin"}],"extensionsUsed":["GODOT_single_root"],"materials":[{}],"meshes":[{"primitives":[{"attributes":{"NORMAL":2,"POSITION":0,"TANGENT":1,"TEXCOORD_0":3},"indices":4,"material":0,"mode":4}]}],"nodes":[{"mesh":0,"name":"play"}],"scene":0,"scenes":[{"nodes":[0]}]}