{"accessors":[{"bufferView":0,"componentType":5126,"count":108,"max":[0.0626562461256981,0.0450000017881393,0.025000000372529],"min":[-0.0723437517881393,-0.0342187434434891,-0.025000000372529],"normalized":false,"type":"VEC3"},{"bufferView":1,"componentType":5126,"count":108,"max":[1.0,1.0,0.000106190520455129,1.0],"min":[-1.0,-1.0,-0.000021435005692183,1.0],"normalized":false,"type":"VEC4"},{"bufferView":2,"componentType":5126,"count":108,"max":[1.0,1.0,1.0],"min":[-1.0,-1.0,-1.0],"normalized":false,"type":"VEC3"},{"bufferView":3,"componentType":5126,"count":108,"max":[1.0,0.899999976158142],"min":[0.0,0.0],"normalized":false,"type":"VEC2"},{"bufferView":4,"componentType":5123,"count":132,"max":[107.0],"min":[0.0],"normalized":false,"type":"SCALAR"}],"asset":{"generator":"Godot Engine v4.5.1.stable.official@f62fdbde15035c5576dad93e586201f4d41ef0cb","version":"2.0"},"bufferViews":[{"buffer":0,"byteLength":1296,"byteStride":12,"target":34962},{"buffer":0,"byteLength":1728,"byteOffset":1296,"byteStride":16,"target":34962},{"buffer":0,"byteLength":1296,"byteOffset":3024,"byteStride":12,"target":34962},{"buffer":0,"byteLength":864,"byteOffset":4320,"byteStride":8,"target":34962},{"buffer":0,"byteLength":264,"byteOffset":5184,"target":34963}],"buffers":[{"byteLength":5448,"uri":"skipback_icon0.bin"}],"extensionsUsed":["GODOT_single_root"],"materials":[{}],"meshes":[{"primitives":[{"attributes":{"NORMAL":2,"POSITION":0,"TANGENT":1,"TEXCOORD_0":3},"indices":4,"material":0,"mode":4}]}],"nodes":[{"mesh":0,"name":"skipback"}],"scene":0,"scenes":[{"nodes":[0]}]}