{"accessors":[{"bufferView":0,"componentType":5126,"count":56,"max":[0.0342187508940697,0.0450000017881393,0.025000000372529],"min":[-0.0435937494039536,-0.0328124947845936,-0.025000000372529],"normalized":false,"type":"VEC3"},{"bufferView":1,"componentType":5126,"count":56,"max":[1.0,1.0,0.0000152592547237873,1.0],"min":[-1.0,-1.0,-0.0000152590218931437,1.0],"normalized":false,"type":"VEC4"},{"bufferView":2,"componentType":5126,"count":56,"max":[1.0,1.0,1.0],"min":[-1.0,-1.0,-1.0],"normalized":false,"type":"VEC3"},{"bufferView":3,"componentType":5126,"count":56,"max":[1.0,0.899999976158142],"min":[0.0,0.0],"normalized":false,"type":"VEC2"},{"bufferView":4,"componentType":5123,"count":72,"max":[55.0],"min":[0.0],"normalized":false,"type":"SCALAR"}],"asset":{"generator":"Godot Engine v4.5.1.stable.official@f62fdbde15035c5576dad93e586201f4d41ef0cb","version":"2.0"},"bufferViews":[{"buffer":0,"byteLength":672,"byteStride":12,"target":34962},{"buffer":0,"byteLength":896,"byteOffset":672,"byteStride":16,"target":34962},{"buffer":0,"byteLength":672,"byteOffset":1568,"byteStride":12,"target":34962},{"buffer":0,"byteLength":448,"byteOffset":2240,"byteStride":8,"target":34962},{"buffer":0,"byteLength":144,"byteOffset":2688,"target":34963}],"buffers":[{"byteLength":2832,"uri":"pause_icon0.bin"}],"extensionsUsed":["GODOT_single_root"],"materials":[{}],"meshes":[{"primitives":[{"attributes":{"NORMAL":2,"POSITION":0,"TANGENT":1,"TEXCOORD_0":3},"indices":4,"material":0,"mode":4}]}],"nodes":[{"mesh":0,"name":"pause"}],"scene":0,"scenes":[{"nodes":[0]}]}